<svg width="92" height="38" viewBox="0 0 92 38" fill="none" xmlns="http://www.w3.org/2000/svg">
<path d="M0.624512 5.66421H12.0086C13.9563 5.66421 15.4675 6.2127 16.5421 7.3097C17.6391 8.40669 18.1876 9.86188 18.1876 11.6753C18.1876 12.5708 18.0644 13.332 17.8182 13.9588C17.5943 14.5857 17.2809 15.1006 16.8779 15.5036C16.4973 15.9065 16.0384 16.2088 15.5011 16.4103C14.9862 16.5894 14.4265 16.6901 13.822 16.7125V16.914C14.3817 16.914 14.9638 17.0147 15.5682 17.2162C16.1951 17.4177 16.766 17.7423 17.2809 18.1901C17.7958 18.6154 18.2212 19.1751 18.557 19.8691C18.9152 20.5632 19.0943 21.4139 19.0943 22.4213C19.0943 23.3392 18.9376 24.2123 18.6241 25.0407C18.3331 25.8466 17.9189 26.5518 17.3816 27.1563C16.8443 27.7608 16.2063 28.2421 15.4675 28.6003C14.7287 28.9361 13.9227 29.104 13.0496 29.104H0.624512V5.66421ZM5.72888 24.8056H11.6056C12.2773 24.8056 12.8034 24.6265 13.184 24.2683C13.5869 23.8877 13.7884 23.3616 13.7884 22.69V21.5482C13.7884 20.8766 13.5869 20.3617 13.184 20.0035C12.8034 19.6229 12.2773 19.4326 11.6056 19.4326H5.72888V24.8056ZM5.72888 15.2685H10.7997C11.4713 15.2685 11.9974 15.0782 12.378 14.6976C12.7586 14.317 12.9489 13.7909 12.9489 13.1193V12.1118C12.9489 11.4402 12.7586 10.9141 12.378 10.5335C11.9974 10.1529 11.4713 9.96263 10.7997 9.96263H5.72888V15.2685Z" fill="#3C5AFF"/>
<path d="M65.5812 13.7237H65.4804L63.7678 17.149L59.2007 25.4437L54.7344 17.1826L52.9545 13.4887H52.8538V29.104H48.0517V5.66421H53.4583L59.2007 16.6453H59.2678L64.9431 5.66421H70.3833V29.104H65.5812V13.7237Z" fill="#3C5AFF"/>
<path d="M81.8122 29.507C79.7526 29.507 78.0064 29.16 76.5735 28.466C75.1407 27.7496 73.9206 26.8317 72.9132 25.7123L76.2713 22.3206C77.8608 24.1116 79.8198 25.0071 82.1481 25.0071C83.4018 25.0071 84.3308 24.7496 84.9353 24.2347C85.5398 23.7198 85.842 23.037 85.842 22.1863C85.842 21.537 85.6629 20.9997 85.3047 20.5743C84.9465 20.1266 84.2189 19.8244 83.1219 19.6677L80.8048 19.3654C78.3198 19.052 76.4952 18.302 75.331 17.1155C74.1893 15.9289 73.6184 14.3506 73.6184 12.3805C73.6184 11.3283 73.8199 10.3656 74.2229 9.49249C74.6258 8.61937 75.1967 7.86939 75.9355 7.24253C76.6967 6.61568 77.6146 6.13435 78.6892 5.79853C79.7862 5.44033 81.0287 5.26123 82.4167 5.26123C84.1853 5.26123 85.7413 5.54108 87.0845 6.10076C88.4278 6.66046 89.5807 7.4776 90.5434 8.55221L87.1517 11.9775C86.592 11.3283 85.9092 10.8022 85.1032 10.3992C84.3197 9.97382 83.3234 9.76114 82.1145 9.76114C80.9727 9.76114 80.122 9.96263 79.5623 10.3656C79.0026 10.7686 78.7228 11.3283 78.7228 12.0447C78.7228 12.8506 78.9354 13.4327 79.3608 13.7909C79.8086 14.1491 80.525 14.4066 81.51 14.5633L83.8271 14.9327C86.245 15.3133 88.036 16.0632 89.2001 17.1826C90.3643 18.2796 90.9464 19.8468 90.9464 21.884C90.9464 23.0034 90.7449 24.0332 90.3419 24.9735C89.9389 25.9138 89.3457 26.7197 88.5621 27.3914C87.8009 28.063 86.8495 28.5891 85.7077 28.9697C84.5659 29.3279 83.2674 29.507 81.8122 29.507Z" fill="#3C5AFF"/>
<mask id="mask0_431_1283" style="mask-type:alpha" maskUnits="userSpaceOnUse" x="16" y="0" width="35" height="34">
<rect x="16.7715" width="33.5814" height="33.5814" fill="#D9D9D9"/>
</mask>
<g mask="url(#mask0_431_1283)">
<path d="M25.1666 26.5854H29.3643V18.19H37.7596V26.5854H41.9573V13.9923L33.562 7.69582L25.1666 13.9923V26.5854ZM22.3682 29.3838V12.5931L33.562 4.19775L44.7558 12.5931V29.3838H34.9612V20.9885H32.1627V29.3838H22.3682Z" fill="#3C5AFF"/>
</g>
</svg>
