<svg width="66" height="24" viewBox="0 0 66 24" fill="none" xmlns="http://www.w3.org/2000/svg">
<path d="M0.575195 4.04825H8.71119C10.1032 4.04825 11.1832 4.44025 11.9512 5.22425C12.7352 6.00825 13.1272 7.04825 13.1272 8.34425C13.1272 8.98425 13.0392 9.52825 12.8632 9.97625C12.7032 10.4243 12.4792 10.7923 12.1912 11.0803C11.9192 11.3683 11.5912 11.5843 11.2072 11.7283C10.8392 11.8563 10.4392 11.9283 10.0072 11.9443V12.0883C10.4072 12.0883 10.8232 12.1603 11.2552 12.3043C11.7032 12.4483 12.1112 12.6803 12.4792 13.0003C12.8472 13.3043 13.1512 13.7043 13.3912 14.2003C13.6472 14.6963 13.7752 15.3043 13.7752 16.0243C13.7752 16.6803 13.6632 17.3043 13.4392 17.8963C13.2312 18.4723 12.9352 18.9763 12.5512 19.4083C12.1672 19.8403 11.7112 20.1843 11.1832 20.4403C10.6552 20.6803 10.0792 20.8003 9.4552 20.8003H0.575195V4.04825ZM4.2232 17.7283H8.4232C8.9032 17.7283 9.2792 17.6003 9.5512 17.3443C9.8392 17.0723 9.98319 16.6963 9.98319 16.2163V15.4003C9.98319 14.9203 9.8392 14.5523 9.5512 14.2963C9.2792 14.0243 8.9032 13.8883 8.4232 13.8883H4.2232V17.7283ZM4.2232 10.9123H7.8472C8.32719 10.9123 8.70319 10.7763 8.97519 10.5043C9.2472 10.2323 9.3832 9.85625 9.3832 9.37625V8.65625C9.3832 8.17625 9.2472 7.80025 8.97519 7.52825C8.70319 7.25625 8.32719 7.12025 7.8472 7.12025H4.2232V10.9123Z" fill="white"/>
<path d="M46.9985 9.80825H46.9265L45.7025 12.2563L42.4385 18.1843L39.2465 12.2803L37.9745 9.64025H37.9025V20.8003H34.4705V4.04825H38.3345L42.4385 11.8963H42.4865L46.5425 4.04825H50.4305V20.8003H46.9985V9.80825Z" fill="white"/>
<path d="M58.5986 21.0883C57.1266 21.0883 55.8786 20.8403 54.8546 20.3443C53.8306 19.8323 52.9586 19.1763 52.2386 18.3763L54.6386 15.9523C55.7746 17.2323 57.1746 17.8723 58.8386 17.8723C59.7346 17.8723 60.3986 17.6883 60.8306 17.3203C61.2626 16.9523 61.4786 16.4643 61.4786 15.8563C61.4786 15.3923 61.3506 15.0083 61.0946 14.7043C60.8386 14.3843 60.3186 14.1683 59.5346 14.0563L57.8786 13.8403C56.1026 13.6163 54.7986 13.0803 53.9666 12.2323C53.1506 11.3843 52.7426 10.2563 52.7426 8.84825C52.7426 8.09625 52.8866 7.40825 53.1746 6.78425C53.4626 6.16025 53.8706 5.62425 54.3986 5.17625C54.9426 4.72825 55.5986 4.38425 56.3666 4.14425C57.1506 3.88825 58.0386 3.76025 59.0306 3.76025C60.2946 3.76025 61.4066 3.96025 62.3666 4.36025C63.3266 4.76025 64.1506 5.34425 64.8386 6.11225L62.4146 8.56025C62.0146 8.09625 61.5266 7.72025 60.9506 7.43225C60.3906 7.12825 59.6786 6.97625 58.8146 6.97625C57.9986 6.97625 57.3906 7.12025 56.9906 7.40825C56.5906 7.69625 56.3906 8.09625 56.3906 8.60825C56.3906 9.18425 56.5426 9.60025 56.8466 9.85625C57.1666 10.1123 57.6786 10.2963 58.3826 10.4083L60.0386 10.6723C61.7666 10.9443 63.0466 11.4803 63.8786 12.2803C64.7106 13.0643 65.1266 14.1843 65.1266 15.6403C65.1266 16.4403 64.9826 17.1763 64.6946 17.8483C64.4066 18.5203 63.9826 19.0963 63.4226 19.5763C62.8786 20.0563 62.1986 20.4323 61.3826 20.7043C60.5666 20.9603 59.6386 21.0883 58.5986 21.0883Z" fill="white"/>
<mask id="mask0_431_1277" style="mask-type:alpha" maskUnits="userSpaceOnUse" x="12" y="0" width="25" height="24">
<rect x="12.1152" width="24" height="24" fill="#D9D9D9"/>
</mask>
<g mask="url(#mask0_431_1277)">
<path d="M18.1152 19H21.1152V13H27.1152V19H30.1152V10L24.1152 5.5L18.1152 10V19ZM16.1152 21V9L24.1152 3L32.1152 9V21H25.1152V15H23.1152V21H16.1152Z" fill="white"/>
</g>
</svg>
